<svg width="61" height="61" viewBox="0 0 61 61" fill="none" xmlns="http://www.w3.org/2000/svg">
<path d="M31.1184 32.9642C35.3434 32.9642 38.7684 29.5392 38.7684 25.3142C38.7684 21.0892 35.3434 17.6642 31.1184 17.6642C26.8934 17.6642 23.4684 21.0892 23.4684 25.3142C23.4684 29.5392 26.8934 32.9642 31.1184 32.9642Z" stroke="black" stroke-width="3.75" stroke-linecap="round" stroke-linejoin="round"/>
<path d="M43.2926 7.96423H18.2926C12.7698 7.96423 8.2926 12.4414 8.2926 17.9642V42.9642C8.2926 48.487 12.7698 52.9642 18.2926 52.9642H43.2926C48.8154 52.9642 53.2926 48.487 53.2926 42.9642V17.9642C53.2926 12.4414 48.8154 7.96423 43.2926 7.96423Z" stroke="black" stroke-width="3.75" stroke-linecap="round" stroke-linejoin="round"/>
<path d="M16.5668 51.7642C16.4864 49.8477 16.7946 47.9347 17.4726 46.1402C18.1506 44.3457 19.1844 42.707 20.5121 41.3225C21.8398 39.9377 23.4338 38.8362 25.1982 38.0835C26.9626 37.331 28.8611 36.9432 30.7793 36.9432C32.6976 36.9432 34.5961 37.331 36.3606 38.0835C38.1248 38.8362 39.7188 39.9377 41.0466 41.3225C42.3741 42.707 43.4081 44.3457 44.0861 46.1402C44.7641 47.9347 45.0721 49.8477 44.9918 51.7642" stroke="black" stroke-width="3.75" stroke-linecap="round" stroke-linejoin="round"/>
</svg>
