<svg width="607" height="629" viewBox="0 0 607 629" fill="none" xmlns="http://www.w3.org/2000/svg">
<path fill-rule="evenodd" clip-rule="evenodd" d="M-185.538 289.169C-141.767 181.087 -134.044 -6.19086 -17.0989 0.507794C97.492 7.07157 122.24 229.394 223.363 312.591C315.902 388.726 452.858 352.823 528.462 449.357C604.151 546.001 618.757 683.912 597.982 790.924C578.216 892.738 493.439 948.067 420.289 1006.55C359.539 1055.12 284.854 1073.67 211.108 1100.23C128.138 1130.12 45.4921 1234.99 -39.5747 1172.21C-134.942 1101.83 -92.777 944.801 -147.508 835.564C-180.979 768.761 -276.369 740.837 -291.191 670.022C-306.047 599.038 -235.797 560.407 -218.299 497.331C-199.611 429.967 -211.175 352.474 -185.538 289.169Z" fill="#009506" fill-opacity="0.2"/>
</svg>
