<svg width="371" height="711" viewBox="0 0 371 711" fill="#009506" xmlns="http://www.w3.org/2000/svg">
<path fill-rule="evenodd" clip-rule="evenodd" d="M408.14 2.05363C323.129 10.8067 249.396 59.1619 188.166 114.156C134.488 162.367 81.166 224.071 84.1365 293.057C87.0145 359.895 214.093 390.359 202.905 456.452C183.326 572.113 -41.8483 641.268 6.88837 749.385C47.8119 840.169 211.562 704.49 318.026 711.834C392.139 716.946 448.264 796.253 521.552 784.887C595.471 773.424 630.541 696.162 690.008 654.146C768.777 598.492 906.061 587.287 927.538 498.038C948.536 410.779 829.666 349.947 781.937 272.121C739.362 202.698 730.305 114.568 662.182 65.3497C591.742 14.457 497.126 -7.10865 408.14 2.05363Z" fill="#009506" fill-opacity="0.2"/>
</svg>
