<svg width="21" height="23" viewBox="0 0 21 23" fill="none" xmlns="http://www.w3.org/2000/svg">
<path d="M10.5976 17.4529H18.6281C19.4935 17.4529 20.1951 16.7513 20.1951 15.8859V9.22644V3.35041C20.1951 2.05232 19.1427 1 17.8447 1H10.5976H3.35045C2.05235 1 1.00004 2.05232 1.00004 3.35041V9.22644V15.4942C1.00004 16.576 1.87697 17.4529 2.95872 17.4529H6.0926V21.9578L10.5976 17.4529Z" fill="white" stroke="#009506" stroke-width="0.783471"/>
<path d="M11.575 6.04893L10.5976 6.87596L9.62022 6.04893C9.20507 5.69764 8.67884 5.50488 8.13501 5.50488C7.4916 5.50488 6.87762 5.77447 6.4422 6.24817L6.3593 6.33835C5.82037 6.92466 5.58263 7.72712 5.7152 8.51238L5.78269 8.91208C5.90311 9.62535 6.24748 10.2818 6.7659 10.7862L10.5976 14.5148L14.4293 10.7862C14.9478 10.2818 15.2921 9.62535 15.4126 8.91208L15.48 8.51238C15.6126 7.72712 15.3749 6.92466 14.8359 6.33835L14.753 6.24817C14.3176 5.77447 13.7036 5.50488 13.0602 5.50488C12.5164 5.50488 11.9902 5.69764 11.575 6.04893Z" fill="#009506" stroke="#009506" stroke-width="0.783471"/>
</svg>
