<svg width="27" height="26" viewBox="0 0 27 26" fill="none" xmlns="http://www.w3.org/2000/svg">
<path d="M13.174 24.6462C13.174 24.3857 13.2775 24.1359 13.4617 23.9518C13.6459 23.7676 13.8957 23.6641 14.1561 23.6641C16.6262 23.6642 19.0218 22.8177 20.9435 21.2658C22.8652 19.7138 24.1971 17.5502 24.7171 15.1355C25.2371 12.7207 24.9138 10.2007 23.8012 7.99531C22.6886 5.78996 20.8538 4.03252 18.6026 3.01586C16.3514 1.99921 13.8198 1.78474 11.4296 2.40821C9.03948 3.03168 6.93519 4.45543 5.46743 6.44218C3.99968 8.42893 3.25711 10.8587 3.36349 13.3265C3.46986 15.7943 4.41876 18.1512 6.05203 20.0042V16.5513C6.05203 16.2908 6.1555 16.041 6.33967 15.8568C6.52385 15.6727 6.77364 15.5692 7.0341 15.5692C7.29457 15.5692 7.54436 15.6727 7.72854 15.8568C7.91271 16.041 8.01618 16.2908 8.01618 16.5513V22.1072C8.01618 22.2363 7.99073 22.3641 7.9413 22.4833C7.89186 22.6026 7.81941 22.7109 7.72807 22.8021C7.63674 22.8933 7.52832 22.9656 7.40902 23.0149C7.28972 23.0642 7.16187 23.0894 7.03279 23.0893H1.47817C1.21771 23.0893 0.967912 22.9858 0.783737 22.8016C0.599562 22.6175 0.496094 22.3677 0.496094 22.1072C0.496094 21.8467 0.599562 21.5969 0.783737 21.4128C0.967912 21.2286 1.21771 21.1251 1.47817 21.1251H4.4244C2.54172 18.9074 1.47286 16.1133 1.39477 13.2053C1.31667 10.2973 2.23404 7.44984 3.99498 5.13432C5.75592 2.81879 8.25483 1.17408 11.078 0.472471C13.9012 -0.229136 16.8793 0.0544374 19.5193 1.27625C22.1594 2.49805 24.303 4.58482 25.5953 7.19107C26.8876 9.79732 27.251 12.7668 26.6255 15.6078C26 18.4488 24.423 20.991 22.1557 22.8135C19.8883 24.636 17.0665 25.6295 14.1574 25.6296C14.0282 25.6298 13.9003 25.6044 13.7809 25.5551C13.6615 25.5057 13.553 25.4333 13.4617 25.3419C13.3703 25.2506 13.2979 25.1421 13.2486 25.0227C13.1992 24.9033 13.1739 24.7754 13.174 24.6462ZM16.9387 18.3426L13.4595 14.866C13.2754 14.6814 13.1719 14.4314 13.1714 14.1707V7.36165C13.1714 7.10118 13.2749 6.85139 13.4591 6.66721C13.6432 6.48304 13.893 6.37957 14.1535 6.37957C14.414 6.37957 14.6638 6.48304 14.8479 6.66721C15.0321 6.85139 15.1356 7.10118 15.1356 7.36165V13.7635L18.3254 16.9533C18.4191 17.0439 18.4939 17.1523 18.5453 17.2721C18.5967 17.392 18.6237 17.5209 18.6248 17.6513C18.6259 17.7817 18.601 17.911 18.5515 18.0316C18.5021 18.1523 18.4291 18.2619 18.3369 18.3541C18.2446 18.4463 18.1349 18.5191 18.0142 18.5684C17.8935 18.6178 17.7642 18.6426 17.6338 18.6414C17.5034 18.6402 17.3745 18.613 17.2547 18.5615C17.1349 18.51 17.0266 18.4351 16.9361 18.3413L16.9387 18.3426Z" fill="white"/>
</svg>
