<svg width="36" height="36" viewBox="0 0 36 36" fill="none" xmlns="http://www.w3.org/2000/svg">
<path d="M29.4406 15.0745V10.6921C29.4406 9.07854 28.1326 7.77049 26.519 7.77049H8.98936C7.3758 7.77049 6.06775 9.07854 6.06775 10.6921V15.0745M29.4406 15.0745V28.2218C29.4406 29.8354 28.1326 31.1434 26.519 31.1434H8.98936C7.3758 31.1434 6.06775 29.8354 6.06775 28.2218V15.0745M29.4406 15.0745H6.06775M11.911 4.84888V10.6921M23.5974 4.84888V10.6921" stroke="#8B8B8B" stroke-width="2.92161" stroke-linecap="round"/>
<path d="M12.6414 17.9963H9.71978C9.31639 17.9963 8.98938 18.3234 8.98938 18.7267V21.6484C8.98938 22.0517 9.31639 22.3788 9.71978 22.3788H12.6414C13.0448 22.3788 13.3718 22.0517 13.3718 21.6484V18.7267C13.3718 18.3234 13.0448 17.9963 12.6414 17.9963Z" fill="#8B8B8B"/>
<path d="M19.215 17.9963H16.2934C15.89 17.9963 15.563 18.3234 15.563 18.7267V21.6484C15.563 22.0517 15.89 22.3788 16.2934 22.3788H19.215C19.6184 22.3788 19.9454 22.0517 19.9454 21.6484V18.7267C19.9454 18.3234 19.6184 17.9963 19.215 17.9963Z" fill="#8B8B8B"/>
<path d="M25.7886 17.9963H22.867C22.4636 17.9963 22.1366 18.3234 22.1366 18.7267V21.6484C22.1366 22.0517 22.4636 22.3788 22.867 22.3788H25.7886C26.192 22.3788 26.519 22.0517 26.519 21.6484V18.7267C26.519 18.3234 26.192 17.9963 25.7886 17.9963Z" fill="#8B8B8B"/>
</svg>
