<svg width="40" height="40" viewBox="0 0 40 40" fill="none" xmlns="http://www.w3.org/2000/svg">
<rect x="0.730713" y="0.671509" width="39.1047" height="39.1047" rx="19.5523" fill="#009506"/>
<path d="M17.2681 23.4488L27.6256 13.0951M17.5625 23.9144L19.911 28.6117C20.4786 29.7468 20.7624 30.3144 21.1199 30.4665C21.4301 30.5986 21.7848 30.5746 22.0746 30.4022C22.4084 30.2034 22.6134 29.6028 23.0235 28.4018L27.461 15.4062C27.8184 14.3597 27.997 13.8365 27.8748 13.4903C27.7684 13.1892 27.5315 12.9524 27.2305 12.846C26.8843 12.7237 26.361 12.9024 25.3145 13.2597L12.3189 17.6972C11.1179 18.1073 10.5174 18.3124 10.3186 18.6462C10.1461 18.9359 10.1222 19.2906 10.2542 19.6008C10.4064 19.9583 10.974 20.2422 12.1091 20.8096L16.8063 23.1583C16.9934 23.2518 17.0869 23.2985 17.1679 23.361C17.2398 23.4165 17.3043 23.4809 17.3597 23.5528C17.4222 23.6339 17.4689 23.7274 17.5625 23.9144Z" stroke="white" stroke-width="1.34844" stroke-linecap="round" stroke-linejoin="round"/>
</svg>
