<svg width="24" height="24" viewBox="0 0 24 24" fill="none" xmlns="http://www.w3.org/2000/svg">
<g clip-path="url(#clip0_55_1979)">
<path fill-rule="evenodd" clip-rule="evenodd" d="M12.1956 23.6854C5.86547 23.6854 0.733887 18.5538 0.733887 12.2237C0.733887 5.89354 5.86547 0.761963 12.1956 0.761963C18.5257 0.761963 23.6573 5.89354 23.6573 12.2237C23.6573 18.5538 18.5257 23.6854 12.1956 23.6854ZM12.1956 21.7751C17.4707 21.7751 21.747 17.4987 21.747 12.2237C21.747 6.94856 17.4707 2.67225 12.1956 2.67225C6.92049 2.67225 2.64417 6.94856 2.64417 12.2237C2.64417 17.4987 6.92049 21.7751 12.1956 21.7751ZM6.51376 15.3911C6.34694 14.8907 6.6174 14.3498 7.11784 14.183C7.61829 14.0162 8.1592 14.2866 8.32601 14.7871C8.40214 15.0155 8.63052 15.4266 9.05042 15.8464C9.76961 16.5657 10.7817 16.9994 12.1956 16.9994C13.6095 16.9994 14.6216 16.5657 15.3408 15.8464C15.7607 15.4266 15.989 15.0155 16.0652 14.7871C16.232 14.2866 16.7729 14.0162 17.2733 14.183C17.7738 14.3498 18.0442 14.8907 17.8775 15.3911C17.7148 15.8791 17.3462 16.5425 16.6915 17.1972C15.6199 18.2689 14.1247 18.9097 12.1956 18.9097C10.2665 18.9097 8.77133 18.2689 7.69964 17.1972C7.045 16.5425 6.67641 15.8791 6.51376 15.3911ZM7.9497 10.153C7.51078 10.4456 6.91777 10.327 6.62516 9.88806C6.33255 9.44915 6.45115 8.85613 6.89007 8.56352L7.26314 8.3148C8.22564 7.67313 9.47955 7.67313 10.442 8.3148L10.8151 8.56352C11.254 8.85613 11.3726 9.44915 11.0801 9.88806C10.7874 10.327 10.1944 10.4456 9.75549 10.153L9.38241 9.90425C9.06158 9.69037 8.64361 9.69037 8.32278 9.90425L7.9497 10.153ZM14.6357 10.153C14.1968 10.4456 13.6038 10.327 13.3111 9.88806C13.0185 9.44915 13.1372 8.85613 13.5761 8.56352L13.9491 8.3148C14.9116 7.67313 16.1656 7.67313 17.128 8.3148L17.5011 8.56352C17.94 8.85613 18.0586 9.44915 17.7661 9.88806C17.4734 10.327 16.8804 10.4456 16.4415 10.153L16.0684 9.90425C15.7476 9.69037 15.3296 9.69037 15.0088 9.90425L14.6357 10.153Z" fill="#A0A0A0"/>
</g>
<defs>
<clipPath id="clip0_55_1979">
<rect width="22.9234" height="22.9234" fill="white" transform="translate(0.733887 0.761963)"/>
</clipPath>
</defs>
</svg>
