<svg width="13" height="24" viewBox="0 0 13 24" fill="none" xmlns="http://www.w3.org/2000/svg">
<path fill-rule="evenodd" clip-rule="evenodd" d="M10.9921 3.62763V17.9548C10.9921 20.3281 9.06728 22.2529 6.69399 22.2529C4.3207 22.2529 2.39585 20.3281 2.39585 17.9548V5.06035C2.39585 3.47792 3.67884 2.19492 5.26128 2.19492C6.84371 2.19492 8.1267 3.47792 8.1267 5.06035V17.9548C8.1267 18.7456 7.48485 19.3875 6.69399 19.3875C5.90313 19.3875 5.26128 18.7456 5.26128 17.9548V6.49306H3.82856V17.9548C3.82856 19.5372 5.11156 20.8202 6.69399 20.8202C8.27642 20.8202 9.55942 19.5372 9.55942 17.9548V5.06035C9.55942 2.68706 7.63457 0.762207 5.26128 0.762207C2.88799 0.762207 0.963135 2.68706 0.963135 5.06035V18.6711C1.3163 21.4972 3.77197 23.6856 6.69399 23.6856C9.61601 23.6856 12.0717 21.4972 12.4248 18.6711V3.62763H10.9921Z" fill="#A0A0A0"/>
</svg>
