<svg width="28" height="28" viewBox="0 0 28 28" fill="none" xmlns="http://www.w3.org/2000/svg">
<path d="M12.4467 9.05154C12.4467 8.42664 12.9532 7.92004 13.5782 7.92004C14.2031 7.92004 14.7097 8.42664 14.7097 9.05154V12.446H18.1042C18.7291 12.446 19.2357 12.9526 19.2357 13.5775C19.2357 14.2025 18.7291 14.709 18.1042 14.709H14.7097V18.1035C14.7097 18.7285 14.2031 19.2351 13.5782 19.2351C12.9532 19.2351 12.4467 18.7285 12.4467 18.1035V14.709H9.05216C8.42724 14.709 7.92065 14.2025 7.92065 13.5775C7.92065 12.9526 8.42725 12.446 9.05216 12.446H12.4467V9.05154Z" fill="white"/>
<path fill-rule="evenodd" clip-rule="evenodd" d="M26.0246 13.5779C26.0246 20.4518 20.4521 26.0244 13.5781 26.0244C6.70409 26.0244 1.13159 20.4518 1.13159 13.5779C1.13159 6.70384 6.70409 1.13135 13.5781 1.13135C20.4521 1.13135 26.0246 6.70384 26.0246 13.5779ZM3.40232 13.5779C3.40232 19.1978 7.95817 23.7537 13.5781 23.7537C19.198 23.7537 23.7539 19.1978 23.7539 13.5779C23.7539 7.95793 19.198 3.40208 13.5781 3.40208C7.95817 3.40208 3.40232 7.95793 3.40232 13.5779Z" fill="white"/>
</svg>
