<svg width="29" height="23" viewBox="0 0 29 23" fill="none" xmlns="http://www.w3.org/2000/svg">
<path d="M28.4686 3.3137C28.3409 2.6707 28.0558 2.08229 27.6577 1.59619C27.5737 1.49028 27.486 1.39543 27.3909 1.30058C26.6855 0.591649 25.6954 0.149414 24.6137 0.149414H4.15245C3.07081 0.149414 2.08424 0.591649 1.37548 1.30058C1.28063 1.39543 1.19291 1.49028 1.10874 1.59619C0.71036 2.08223 0.425252 2.6707 0.301143 3.3137C0.25015 3.56186 0.224487 3.81832 0.224487 4.0776V18.4482C0.224487 18.9995 0.341406 19.5295 0.549914 20.008C0.743323 20.4649 1.02849 20.8782 1.37543 21.2248C1.46337 21.3126 1.5507 21.3932 1.64599 21.4734C2.32549 22.0361 3.20261 22.376 4.15245 22.376H24.6137C25.5639 22.376 26.4448 22.0361 27.1204 21.4698C27.2154 21.3932 27.3032 21.3126 27.3909 21.2248C27.7377 20.8782 28.0228 20.4649 28.2202 20.008V20.0045C28.4287 19.5259 28.5416 18.9995 28.5416 18.4483V4.0776C28.5417 3.81832 28.5164 3.56186 28.4686 3.3137ZM2.79676 2.72169C3.14769 2.37115 3.61896 2.15894 4.15245 2.15894H24.6137C25.1472 2.15894 25.6227 2.37115 25.9694 2.72169C26.0315 2.78413 26.0899 2.85371 26.1415 2.92284L15.4171 12.2695C15.1213 12.5287 14.756 12.6567 14.3831 12.6567C14.014 12.6567 13.6488 12.5287 13.3491 12.2695L2.6288 2.91886C2.67625 2.84973 2.73471 2.78413 2.79676 2.72169ZM2.23401 18.4482V4.99835L9.99492 11.7688L2.23794 18.532C2.23401 18.5063 2.23401 18.4775 2.23401 18.4482ZM24.6137 20.3661H4.15245C3.80507 20.3661 3.48003 20.2748 3.20261 20.1143L11.3868 12.982L12.1509 13.6467C12.7903 14.2023 13.5904 14.4837 14.3831 14.4837C15.1798 14.4837 15.9799 14.2023 16.6193 13.6467L17.3829 12.982L25.564 20.1143C25.2862 20.2748 24.9611 20.3661 24.6137 20.3661ZM26.5322 18.4482C26.5322 18.4775 26.5322 18.5063 26.5284 18.532L18.7715 11.7727L26.5322 5.00195V18.4482Z" fill="#8B8B8B"/>
</svg>
