<svg width="27" height="27" viewBox="0 0 27 27" fill="none" xmlns="http://www.w3.org/2000/svg">
<path d="M20.664 19.0052L21.0896 22.4534C21.1987 23.3591 20.2275 23.992 19.4528 23.5227L14.8807 20.8057C14.3787 20.8057 13.8877 20.7729 13.4075 20.7075C14.215 19.7581 14.6952 18.5578 14.6952 17.2593C14.6952 14.1603 12.0108 11.6505 8.69354 11.6505C7.42775 11.6505 6.26017 12.0106 5.28901 12.6435C5.25627 12.3707 5.24536 12.0979 5.24536 11.8142C5.24536 6.84926 9.55559 2.82275 14.8807 2.82275C20.2057 2.82275 24.5159 6.84926 24.5159 11.8142C24.5159 14.7604 22.9992 17.3684 20.664 19.0052Z" stroke="white" stroke-width="1.63679" stroke-linecap="round" stroke-linejoin="round"/>
<path d="M14.6953 17.2588C14.6953 18.5573 14.2152 19.7577 13.4077 20.7071C12.3274 22.0165 10.6142 22.8566 8.69372 22.8566L5.8457 24.548C5.36557 24.8426 4.7545 24.4389 4.81997 23.8823L5.09277 21.7328C3.63057 20.718 2.69214 19.092 2.69214 17.2588C2.69214 15.3383 3.71786 13.647 5.28919 12.6431C6.26035 12.0102 7.42793 11.6501 8.69372 11.6501C12.011 11.6501 14.6953 14.1598 14.6953 17.2588Z" stroke="white" stroke-width="1.63679" stroke-linecap="round" stroke-linejoin="round"/>
</svg>
