<svg width="35" height="25" viewBox="0 0 35 25" fill="none" xmlns="http://www.w3.org/2000/svg">
<path d="M28.042 18.335C29.7613 19.2765 30.7434 20.9538 30.6203 22.6312C30.5378 23.6539 30.4972 23.6958 29.1878 23.8595C28.3694 23.9826 23.2128 24.0232 17.8939 24.0232C11.8784 24.0232 5.57736 23.9001 5.12692 23.777C3.32644 23.3265 4.30852 20.053 6.68253 18.4987C8.52359 17.3123 12.2882 15.5118 13.3122 15.3063C14.7041 15.0195 14.8678 14.1605 13.3122 11.3779C12.9442 10.7638 12.5344 8.88216 12.4938 6.91801C12.4532 3.72561 13.0673 1.55718 15.8499 0.49392C16.4234 0.289648 16.9956 0.207153 17.5273 0.207153C19.3683 0.207153 21.0876 1.22982 21.7829 2.74484C22.8056 4.74958 22.3971 10.1104 21.3325 12.034C20.1042 14.2024 20.2273 14.899 21.5787 15.267C22.4796 15.5131 25.2621 16.8226 28.0447 18.3363L28.042 18.335ZM5.78164 17.108C5.12692 17.5585 4.51279 18.1307 4.02176 18.7042C2.46615 18.7042 1.2798 18.6636 1.15671 18.6217C0.134042 18.3756 0.706265 16.4939 2.0576 15.6755C3.08027 15.0208 5.16751 13.9981 5.74104 13.875C6.47826 13.7114 6.64194 13.2609 5.74104 11.7066C5.53677 11.3793 5.2906 10.3147 5.2906 9.21083C5.25001 7.41036 5.61796 6.18211 7.17357 5.65048C8.483 5.15944 9.95612 5.77356 10.4877 6.87873C11.0194 8.02448 10.7339 10.9707 10.1604 12.0353C9.50567 13.3041 9.62876 13.6315 10.3647 13.8358C10.5283 13.8763 10.8557 14.04 11.3061 14.2456C9.50567 14.9828 7.05048 16.3329 5.78164 17.1107V17.108ZM32.7076 15.5524C33.6896 16.0841 34.2213 16.9849 34.1401 17.9264C34.0995 18.5 34.0995 18.5406 33.3623 18.6217C33.158 18.6623 32.2165 18.7042 30.9883 18.7042C30.4566 18.0089 29.7194 17.3542 28.8198 16.9038C27.1425 15.9217 25.0958 14.8571 23.5821 14.2024C23.992 14.0387 24.3599 13.9156 24.5236 13.875C25.3014 13.7114 25.4245 13.2609 24.5236 11.7066C24.3599 11.3793 24.0731 10.3147 24.0731 9.21083C24.0325 7.41036 24.3599 6.18211 25.9142 5.65048C27.2642 5.15944 28.7373 5.77356 29.2284 6.87873C29.76 8.02448 29.5557 10.9707 28.9822 12.0353C28.3275 13.3041 28.4087 13.6315 29.1053 13.8358C29.5963 13.9994 31.1519 14.7367 32.7062 15.555L32.7076 15.5524Z" fill="white"/>
</svg>
