<svg width="24" height="23" viewBox="0 0 24 23" fill="none" xmlns="http://www.w3.org/2000/svg">
<path d="M17.305 14.6785C18.6786 12.8042 19.2937 10.4805 19.0275 8.17208C18.7613 5.86369 17.6333 3.74095 15.8692 2.22853C14.1051 0.716108 11.8349 -0.0744477 9.51296 0.0150217C7.191 0.104491 4.98844 1.06739 3.34593 2.71107C1.70342 4.35475 0.742104 6.558 0.654296 8.88003C0.566488 11.2021 1.35867 13.4716 2.87235 15.2346C4.38603 16.9977 6.50958 18.1242 8.81816 18.3887C11.1267 18.6533 13.4501 18.0365 15.3234 16.6616H15.322C15.3636 16.7183 15.4099 16.7727 15.461 16.8247L20.9222 22.286C21.1882 22.5521 21.549 22.7017 21.9253 22.7019C22.3016 22.702 22.6625 22.5526 22.9287 22.2867C23.1948 22.0207 23.3445 21.6599 23.3446 21.2836C23.3447 20.9073 23.1954 20.5464 22.9294 20.2802L17.4682 14.819C17.4175 14.7676 17.3629 14.7216 17.305 14.6785ZM17.671 9.22581C17.671 10.2504 17.4692 11.2649 17.0771 12.2114C16.6851 13.158 16.1104 14.018 15.3859 14.7425C14.6615 15.467 13.8014 16.0416 12.8548 16.4337C11.9083 16.8258 10.8938 17.0276 9.86924 17.0276C8.8447 17.0276 7.83019 16.8258 6.88364 16.4337C5.93708 16.0416 5.07702 15.467 4.35256 14.7425C3.6281 14.018 3.05343 13.158 2.66135 12.2114C2.26928 11.2649 2.06748 10.2504 2.06748 9.22581C2.06748 7.15666 2.88945 5.17225 4.35256 3.70914C5.81568 2.24602 7.80008 1.42405 9.86924 1.42405C11.9384 1.42405 13.9228 2.24602 15.3859 3.70914C16.849 5.17225 17.671 7.15666 17.671 9.22581Z" fill="white"/>
</svg>
