<svg width="21" height="23" viewBox="0 0 21 23" fill="none" xmlns="http://www.w3.org/2000/svg">
<path d="M10.4694 17.2333H2.54603C1.69218 17.2333 1 16.5412 1 15.6873V9.11667V3.31905C1 2.03827 2.03827 1 3.31905 1H10.4694H17.6198C18.9006 1 19.9389 2.03827 19.9389 3.31905V9.11667V15.3008C19.9389 16.3681 19.0737 17.2333 18.0064 17.2333H14.9143V21.6782L10.4694 17.2333Z" fill="white" stroke="#009506" stroke-width="0.803036"/>
<path d="M9.7504 3.83957C10.3525 3.68904 10.9119 4.14442 10.9522 4.73397C10.9975 5.39595 11.097 6.00376 11.2217 6.36529C11.3005 6.59204 11.5234 7.00334 11.8768 7.39763C12.2276 7.79003 12.6843 8.13959 13.219 8.28572C13.6423 8.40098 14.0737 8.76756 14.0737 9.30294V11.823C14.0737 12.3552 13.6442 12.7451 13.1617 12.7961C12.4878 12.8679 12.1766 13.0575 11.8592 13.2515L11.8289 13.2704C11.6576 13.3743 11.4649 13.4896 11.218 13.5752C10.9679 13.6609 10.6757 13.7119 10.2946 13.7119H8.09011C7.49993 13.7119 7.08297 13.4115 6.87197 13.0418C6.76999 12.8673 6.71487 12.6694 6.71198 12.4673C6.71198 12.3716 6.72647 12.2708 6.76048 12.1751C6.63388 12.0094 6.52114 11.811 6.45311 11.6076C6.38383 11.3997 6.34478 11.1276 6.45059 10.8839C6.40713 10.802 6.37501 10.7144 6.35045 10.63C6.30195 10.46 6.27927 10.2723 6.27927 10.0903C6.27927 9.90886 6.30195 9.72179 6.35045 9.5511C6.37197 9.47246 6.40108 9.3961 6.43737 9.32309C6.32708 9.16618 6.25612 8.98506 6.23047 8.79498C6.20482 8.60491 6.22523 8.41146 6.28998 8.23092C6.41973 7.85805 6.71954 7.53808 7.04581 7.42975C7.57929 7.25213 8.18144 7.25591 8.63052 7.29685C8.72375 7.30527 8.81678 7.31577 8.90955 7.32834C8.69194 6.39252 8.70534 5.4178 8.9486 4.48832C8.99107 4.33942 9.07256 4.20456 9.18462 4.09771C9.29668 3.99085 9.43526 3.91587 9.58601 3.88051L9.7504 3.83957ZM8.09011 13.0827H10.2946C10.6158 13.0827 10.8382 13.0392 11.0126 12.9794C11.1896 12.9183 11.3313 12.8358 11.5014 12.7319L11.5266 12.7168C11.8762 12.5032 12.2812 12.2563 13.0949 12.17C13.3047 12.1474 13.4439 11.9874 13.4439 11.8236V9.30294C13.4439 9.14295 13.3015 8.96093 13.0534 8.89353C12.3637 8.70457 11.8081 8.2662 11.4069 7.81774C11.007 7.37054 10.7368 6.8887 10.6272 6.57189C10.4741 6.13099 10.3708 5.4583 10.3236 4.7768C10.3078 4.54879 10.0968 4.40266 9.90346 4.45053L9.73844 4.4921C9.63766 4.5173 9.57593 4.58217 9.55704 4.65272C9.29982 5.63278 9.33153 6.66633 9.64837 7.62878C9.6663 7.68231 9.66952 7.73968 9.65768 7.79488C9.64584 7.85007 9.61938 7.90107 9.58107 7.94254C9.54276 7.984 9.49401 8.01441 9.43991 8.03057C9.38582 8.04673 9.32838 8.04806 9.2736 8.03441L9.27171 8.03378L9.2629 8.03189L9.22636 8.02307C9.01096 7.97746 8.79308 7.94445 8.57383 7.92418C8.15624 7.88639 7.65614 7.89017 7.24484 8.02748C7.13462 8.06401 6.96141 8.21644 6.88582 8.43689C6.81843 8.63088 6.83103 8.85889 7.05337 9.0806L7.2757 9.30294L7.05337 9.52591C7.02628 9.55299 6.98723 9.61472 6.95637 9.72431C6.92613 9.8295 6.90913 9.95736 6.90913 10.0903C6.90913 10.2238 6.92613 10.351 6.95637 10.4568C6.98786 10.5664 7.02628 10.6282 7.05337 10.6552L7.2757 10.8776L7.05337 11.1005C7.02376 11.1301 6.98471 11.212 7.05021 11.4079C7.11804 11.5981 7.22659 11.7711 7.36829 11.9149L7.59063 12.1373L7.36829 12.3603C7.36451 12.3634 7.34247 12.3917 7.34247 12.4673C7.34616 12.5596 7.37232 12.6495 7.41868 12.7294C7.52261 12.9107 7.7355 13.0827 8.09011 13.0827Z" fill="#009506"/>
<path d="M8.09011 13.0827H10.2946C10.6158 13.0827 10.8382 13.0392 11.0126 12.9794C11.1896 12.9183 11.3313 12.8358 11.5014 12.7319L11.5266 12.7168C11.8762 12.5032 12.2812 12.2563 13.0949 12.17C13.3047 12.1474 13.4439 11.9874 13.4439 11.8236V9.30294C13.4439 9.14295 13.3015 8.96093 13.0534 8.89353C12.3637 8.70457 11.8081 8.2662 11.4069 7.81774C11.007 7.37054 10.7368 6.8887 10.6272 6.57189C10.4741 6.13099 10.3708 5.4583 10.3236 4.7768C10.3078 4.54879 10.0968 4.40266 9.90346 4.45053L9.73844 4.4921C9.63766 4.5173 9.57593 4.58217 9.55704 4.65272C9.29982 5.63278 9.33153 6.66633 9.64837 7.62878C9.6663 7.68231 9.66952 7.73968 9.65768 7.79488C9.64584 7.85007 9.61938 7.90107 9.58107 7.94254C9.54276 7.984 9.49401 8.01441 9.43991 8.03057C9.38582 8.04673 9.32838 8.04806 9.2736 8.03441L9.27171 8.03378L9.2629 8.03189L9.22636 8.02307C9.01096 7.97746 8.79308 7.94445 8.57383 7.92418C8.15624 7.88639 7.65614 7.89017 7.24484 8.02748C7.13462 8.06401 6.96141 8.21644 6.88582 8.43689C6.81843 8.63088 6.83103 8.85889 7.05337 9.0806L7.2757 9.30294L7.05337 9.52591C7.02628 9.55299 6.98723 9.61472 6.95637 9.72431C6.92613 9.8295 6.90913 9.95736 6.90913 10.0903C6.90913 10.2238 6.92613 10.351 6.95637 10.4568C6.98786 10.5664 7.02628 10.6282 7.05337 10.6552L7.2757 10.8776L7.05337 11.1005C7.02376 11.1301 6.98471 11.212 7.05021 11.4079C7.11804 11.5981 7.22659 11.7711 7.36829 11.9149L7.59063 12.1373L7.36829 12.3603C7.36451 12.3634 7.34247 12.3917 7.34247 12.4673C7.34616 12.5596 7.37232 12.6495 7.41868 12.7294C7.52261 12.9107 7.7355 13.0827 8.09011 13.0827Z" fill="#009506"/>
</svg>
