<?xml version="1.0" standalone="no"?>
<!DOCTYPE svg PUBLIC "-//W3C//DTD SVG 20010904//EN"
 "http://www.w3.org/TR/2001/REC-SVG-20010904/DTD/svg10.dtd">
<svg version="1.0" xmlns="http://www.w3.org/2000/svg"
 width="992.000000pt" height="992.000000pt" viewBox="0 0 992.000000 992.000000"
 preserveAspectRatio="xMidYMid meet">
<metadata>
Created by potrace 1.14, written by Peter Selinger 2001-2017
</metadata>
<g transform="translate(0.000000,992.000000) scale(0.100000,-0.100000)"
fill="#000000" stroke="none">
<path d="M1740 9718 c-216 -44 -340 -91 -480 -183 -88 -58 -112 -78 -194 -162
-81 -82 -77 -77 -138 -163 -46 -65 -124 -219 -144 -285 -41 -131 -58 -225 -59
-317 0 -32 -3 -58 -7 -58 -4 0 -4 -10 1 -22 5 -13 5 -32 1 -43 -4 -11 -4 -27
1 -36 4 -8 4 -21 -1 -29 -4 -7 -4 -24 1 -37 5 -15 5 -23 -2 -23 -6 0 -7 -6 -1
-17 6 -9 6 -29 2 -45 -5 -15 -5 -28 -1 -28 3 0 7 -9 7 -20 0 -11 -4 -20 -8
-20 -4 0 -4 -10 1 -22 5 -13 5 -32 1 -43 -4 -11 -4 -27 1 -36 4 -8 4 -21 -1
-29 -4 -7 -4 -24 1 -37 5 -15 5 -23 -2 -23 -6 0 -6 -6 1 -19 7 -13 7 -28 0
-46 -7 -17 -7 -24 0 -20 7 4 7 -2 0 -19 -6 -16 -6 -27 0 -31 7 -4 7 -13 0 -24
-5 -10 -6 -21 -3 -25 10 -9 10 -56 0 -56 -4 0 -2 -10 4 -22 9 -16 9 -23 1 -26
-8 -2 -9 -9 -2 -21 5 -10 6 -21 3 -25 -7 -7 -10 -66 -3 -66 3 0 5 -13 5 -30 0
-16 -4 -30 -8 -30 -5 0 -5 -5 -1 -11 10 -17 11 -51 2 -77 -5 -15 -4 -21 2 -17
7 4 7 -2 0 -19 -6 -16 -6 -27 0 -31 7 -4 7 -13 0 -24 -5 -10 -6 -21 -3 -25 10
-9 10 -56 0 -56 -4 0 -2 -10 4 -22 9 -16 9 -23 1 -26 -8 -2 -9 -9 -2 -21 5
-10 6 -21 3 -25 -7 -7 -10 -66 -3 -66 3 0 5 -13 5 -30 0 -16 -4 -30 -8 -30 -5
0 -5 -5 -1 -11 10 -17 11 -51 2 -77 -5 -15 -4 -21 2 -17 7 4 7 -2 0 -19 -6
-16 -6 -27 0 -31 7 -4 7 -13 0 -24 -5 -10 -6 -21 -3 -25 10 -9 10 -56 0 -56
-4 0 -2 -10 4 -22 9 -16 9 -23 1 -26 -8 -2 -9 -9 -2 -21 5 -10 7 -21 3 -25 -7
-7 -10 -76 -3 -76 3 0 6 -9 6 -20 0 -11 -4 -20 -8 -20 -4 0 -4 -10 1 -22 5
-13 5 -32 1 -43 -4 -11 -4 -27 1 -36 4 -8 4 -21 -1 -29 -4 -7 -4 -24 1 -37 5
-15 5 -23 -2 -23 -6 0 -7 -6 -1 -17 6 -9 6 -29 2 -45 -5 -15 -5 -28 -1 -28 3
0 7 -9 7 -20 0 -11 -4 -20 -8 -20 -4 0 -4 -10 1 -22 5 -13 5 -32 1 -43 -4 -11
-4 -27 1 -36 4 -8 4 -21 -1 -29 -4 -7 -4 -24 1 -37 5 -15 5 -23 -2 -23 -6 0
-7 -6 0 -17 5 -10 5 -26 0 -40 -5 -13 -5 -23 -1 -23 4 0 7 -13 7 -30 0 -16 -4
-30 -8 -30 -5 0 -5 -5 -1 -11 10 -17 11 -51 2 -77 -5 -15 -4 -21 2 -17 7 4 7
-2 0 -19 -6 -16 -6 -27 0 -31 7 -4 7 -13 0 -24 -5 -10 -6 -21 -3 -25 10 -9 10
-56 0 -56 -4 0 -2 -10 4 -22 9 -16 9 -23 1 -26 -8 -2 -9 -9 -2 -21 5 -10 6
-21 3 -25 -7 -7 -10 -66 -3 -66 3 0 5 -13 5 -30 0 -16 -4 -30 -8 -30 -4 0 -4
-7 1 -16 5 -9 6 -32 2 -50 -4 -19 -5 -34 -1 -34 3 0 6 -13 6 -30 0 -16 -4 -30
-8 -30 -5 0 -5 -5 -1 -11 10 -17 11 -51 2 -77 -5 -15 -4 -21 2 -17 7 4 7 -2 0
-19 -6 -16 -6 -27 0 -31 7 -4 7 -13 0 -24 -5 -10 -6 -21 -3 -25 10 -9 10 -56
0 -56 -4 0 -2 -10 4 -22 9 -16 9 -23 1 -26 -8 -2 -9 -9 -2 -21 5 -10 6 -21 3
-25 -7 -7 -10 -66 -3 -66 3 0 5 -13 5 -30 0 -16 -4 -30 -8 -30 -4 0 -4 -7 1
-16 5 -9 6 -34 2 -55 -4 -21 -4 -39 -1 -39 4 0 7 -9 7 -20 0 -11 -4 -20 -8
-20 -4 0 -4 -10 1 -22 5 -13 5 -32 1 -43 -4 -11 -4 -27 1 -36 4 -8 4 -21 -1
-29 -4 -7 -4 -24 1 -37 5 -15 5 -23 -2 -23 -6 0 -7 -6 -1 -17 6 -9 6 -29 2
-45 -5 -15 -5 -28 -1 -28 3 0 7 -9 7 -20 0 -11 -4 -20 -8 -20 -4 0 -4 -10 1
-22 5 -13 5 -32 1 -43 -4 -11 -4 -27 1 -36 4 -8 4 -21 -1 -29 -4 -7 -4 -24 1
-37 5 -15 5 -23 -2 -23 -6 0 -6 -6 1 -19 7 -13 7 -28 0 -46 -7 -17 -7 -24 0
-20 7 4 7 -2 0 -19 -6 -16 -6 -27 0 -31 7 -4 7 -13 0 -24 -5 -10 -6 -21 -3
-25 10 -9 10 -56 0 -56 -4 0 -2 -10 4 -22 9 -16 9 -23 1 -26 -8 -2 -9 -9 -2
-21 5 -10 6 -21 3 -25 -7 -7 -10 -66 -3 -66 3 0 5 -13 5 -30 0 -16 -4 -30 -8
-30 -5 0 -5 -5 -1 -11 10 -17 11 -51 2 -77 -5 -15 -4 -21 2 -17 7 4 7 -2 0
-19 -6 -16 -6 -27 0 -31 7 -4 7 -13 0 -24 -5 -10 -6 -21 -3 -25 10 -9 10 -56
0 -56 -4 0 -2 -10 4 -22 9 -16 9 -23 1 -26 -8 -2 -9 -9 -2 -21 5 -10 6 -21 3
-25 -7 -7 -10 -66 -3 -66 3 0 5 -13 5 -30 0 -16 -4 -30 -8 -30 -4 0 -4 -8 1
-18 4 -9 7 -28 5 -42 -6 -56 -8 -120 -3 -120 3 0 6 -15 6 -32 2 -52 13 -124
25 -155 6 -15 10 -29 10 -30 -3 -16 50 -134 81 -181 15 -24 28 -47 28 -51 0
-5 37 -47 83 -93 118 -123 231 -192 385 -238 41 -12 80 -19 88 -16 7 3 16 2
18 -3 8 -13 42 -13 1832 -15 l1701 -1 1088 -1087 c598 -599 1090 -1088 1094
-1088 3 0 5 483 5 1073 -1 589 0 1079 2 1088 4 14 66 16 622 17 339 0 619 1
622 2 3 1 25 3 50 6 88 7 203 35 252 60 15 8 29 14 30 13 12 -7 185 91 238
136 117 97 241 254 296 375 22 50 62 170 68 205 2 17 5 30 6 30 15 0 23 5548
8 5610 -4 17 -10 47 -13 68 -10 61 -50 186 -85 262 -79 175 -210 336 -370 456
-36 27 -69 52 -75 56 -13 11 -69 35 -74 33 -2 -1 -7 3 -10 8 -7 12 -123 65
-166 77 -35 10 -35 10 -55 18 -8 3 -40 10 -70 16 -30 6 -68 14 -85 18 -45 11
-6562 11 -6615 1z"/>
</g>
</svg>
